<svg version="1.1" id="Layer_1" xmlns="http://www.w3.org/2000/svg" xmlns:xlink="http://www.w3.org/1999/xlink" x="0px" y="0px"
	 width="100%" viewBox="0 0 496 496" enable-background="new 0 0 496 496" xml:space="preserve">
<path fill="#000000" opacity="1.000000" stroke="none" 
	d="
M239.904419,317.232788 
	C211.962708,322.305542 185.300400,320.586090 160.956436,305.497772 
	C135.229965,289.552551 122.103569,266.191376 121.616737,235.712692 
	C121.163971,207.366104 130.825592,183.952438 154.049210,166.878036 
	C156.991043,164.715149 160.198425,162.897446 163.369904,161.071106 
	C164.573669,160.377930 166.154770,159.275375 167.266037,161.213577 
	C168.155884,162.765594 166.904160,163.661926 165.826569,164.473373 
	C149.162048,177.021912 143.891754,195.181046 141.334900,214.583359 
	C138.907928,233.000183 139.756973,251.205811 147.252258,268.467468 
	C157.762711,292.673126 176.286774,306.783234 202.434784,310.801239 
	C214.445801,312.646912 226.255554,311.956818 239.107925,308.109467 
	C218.541122,287.028687 211.191177,262.014862 214.482773,233.809555 
	C217.789352,205.475525 232.134476,183.742874 256.785614,167.023773 
	C237.776901,158.334213 219.773209,157.266953 201.760391,164.942062 
	C182.717468,173.056091 173.619995,188.260162 173.844910,209.288483 
	C169.568954,208.022339 170.463882,204.953979 170.408051,202.894485 
	C169.817581,181.109756 182.762695,162.596130 203.555511,155.731598 
	C224.086365,148.953552 244.244583,150.858215 263.882233,159.368378 
	C266.844360,160.652023 269.381958,160.947525 272.458679,159.827972 
	C297.768677,150.618210 323.088531,152.423157 348.346771,160.124191 
	C350.398743,160.749817 352.336243,161.803848 354.259277,162.790649 
	C364.779327,168.189087 366.090424,174.519943 358.055176,183.265274 
	C351.886292,189.979340 343.355408,193.662949 332.732056,188.839645 
	C324.181427,184.957382 316.546326,179.609116 308.952545,174.191788 
	C305.020599,171.386795 301.090576,168.568192 297.301941,165.575623 
	C289.431274,159.358734 284.614044,159.284073 275.524170,165.963486 
	C297.229645,182.497421 307.066071,205.051895 307.945435,231.608658 
	C308.827148,258.236359 299.547394,280.807678 278.735413,298.407166 
	C281.269623,301.132782 284.447754,301.751404 287.361023,302.558197 
	C315.979156,310.483063 341.332825,304.818237 362.967224,284.076385 
	C364.530212,282.577881 366.044617,281.026733 367.540863,279.461121 
	C368.772949,278.171844 370.018311,277.097015 371.807495,278.530518 
	C373.862274,280.176819 372.805298,281.709106 371.611725,283.243500 
	C365.976013,290.488739 359.998077,297.445831 353.151703,303.565979 
	C340.528900,314.849854 326.285339,323.045685 309.475250,326.530487 
	C290.418610,330.481018 272.324951,327.820404 255.358353,318.641846 
	C250.203949,315.853455 245.597046,315.045044 239.904419,317.232788 
M271.679382,286.142883 
	C274.648529,282.329346 277.466888,278.419403 279.713623,274.118622 
	C289.891785,254.635315 290.810181,233.955200 287.048370,212.892593 
	C284.474121,198.478928 277.831909,185.909851 267.497650,175.378799 
	C264.904114,172.735886 262.795471,172.469513 260.045288,175.357483 
	C255.898743,179.711807 251.994125,184.147049 248.874985,189.355515 
	C238.960236,205.911545 237.498169,224.009338 239.647385,242.468979 
	C241.637833,259.564850 248.183807,274.903290 260.901215,287.074066 
	C266.264099,292.206390 266.307373,292.161194 271.679382,286.142883 
z"/>
</svg>